# xmcd
#
# Track frame offsets: 
#        150
#        20617
#        44717
#        64237
#        89575
#        113360
#        132862
#        157227
#        179705
#        198755
#
# Disc length: 2972 seconds
#
# Revision: 20
# Processed by: cddbd v1.5.2PL0 Copyright (c) Steve Scherf et al.
# Submitted via: ExactAudioCopyFreeDBPlugin 1.0
#
DISCID=8f0b9a0a
DTITLE=Amanda Marshall - Amanda Marshall
DYEAR=1996
DGENRE=Pop
TTITLE0=Let it rain
TTITLE1=Birmingham
TTITLE2=Fall from grace
TTITLE3=Dark horse
TTITLE4=Beautiful goodbye
TTITLE5=Sitting on top of the world
TTITLE6=Last exit to eden
TTITLE7=Trust me (this is love)
TTITLE8=Let's get lost
TTITLE9=Promises
EXTD=YEAR: 1996
EXTT0=
EXTT1=
EXTT2=
EXTT3=
EXTT4=
EXTT5=
EXTT6=
EXTT7=
EXTT8=
EXTT9=
PLAYORDER=
